{
    "asset": {
        "version": "2.0",
        "generator": "Open Asset Import Library (assimp v5.2.cf7d3637)"
    },
    "extensionsUsed": [
        "KHR_materials_volume",
        "FB_ngon_encoding"
    ],
    "accessors": [
        {
            "bufferView": 0,
            "byteOffset": 0,
            "componentType": 5126,
            "count": 4419,
            "type": "VEC3",
            "max": [
                151.20567321777345,
                -3.5,
                158.91815185546876
            ],
            "min": [
                -11.283354759216309,
                -6.0,
                -5.052999973297119
            ]
        },
        {
            "bufferView": 1,
            "byteOffset": 0,
            "componentType": 5126,
            "count": 4419,
            "type": "VEC3",
            "max": [
                0.026963992044329644,
                1.0,
                6.123234262925839e-17
            ],
            "min": [
                -0.01378959883004427,
                0.9990091323852539,
                -0.03544112667441368
            ]
        },
        {
            "bufferView": 2,
            "byteOffset": 0,
            "componentType": 5126,
            "count": 4419,
            "type": "VEC2",
            "max": [
                37.80141830444336,
                53.97271728515625
            ],
            "min": [
                -2.820838689804077,
                -0.684333324432373
            ]
        },
        {
            "bufferView": 3,
            "byteOffset": 0,
            "componentType": 5125,
            "count": 4419,
            "type": "SCALAR",
            "max": [
                4418
            ],
            "min": [
                0
            ]
        },
        {
            "bufferView": 4,
            "byteOffset": 0,
            "componentType": 5126,
            "count": 1350,
            "type": "VEC3",
            "max": [
                151.20567321777345,
                -3.5,
                158.91815185546876
            ],
            "min": [
                -11.283354759216309,
                -7.0,
                -5.052999973297119
            ]
        },
        {
            "bufferView": 5,
            "byteOffset": 0,
            "componentType": 5126,
            "count": 1350,
            "type": "VEC3",
            "max": [
                1.0,
                6.044802982477031e-17,
                1.0
            ],
            "min": [
                -0.9999964833259583,
                -1.0,
                -0.9871912598609924
            ]
        },
        {
            "bufferView": 6,
            "byteOffset": 0,
            "componentType": 5126,
            "count": 1350,
            "type": "VEC2",
            "max": [
                50.40188980102539,
                53.97271728515625
            ],
            "min": [
                -52.305137634277347,
                -0.684333324432373
            ]
        },
        {
            "bufferView": 7,
            "byteOffset": 0,
            "componentType": 5125,
            "count": 1350,
            "type": "SCALAR",
            "max": [
                1349
            ],
            "min": [
                0
            ]
        }
    ],
    "buffers": [
        {
            "byteLength": 207684,
            "uri": "result.bin"
        }
    ],
    "bufferViews": [
        {
            "buffer": 0,
            "byteOffset": 0,
            "byteLength": 53028,
            "target": 34962
        },
        {
            "buffer": 0,
            "byteOffset": 53028,
            "byteLength": 53028,
            "target": 34962
        },
        {
            "buffer": 0,
            "byteOffset": 106056,
            "byteLength": 35352,
            "target": 34962
        },
        {
            "buffer": 0,
            "byteOffset": 141408,
            "byteLength": 17676,
            "target": 34963
        },
        {
            "buffer": 0,
            "byteOffset": 159084,
            "byteLength": 16200,
            "target": 34962
        },
        {
            "buffer": 0,
            "byteOffset": 175284,
            "byteLength": 16200,
            "target": 34962
        },
        {
            "buffer": 0,
            "byteOffset": 191484,
            "byteLength": 10800,
            "target": 34962
        },
        {
            "buffer": 0,
            "byteOffset": 202284,
            "byteLength": 5400,
            "target": 34963
        }
    ],
    "images": [
        {
            "name": "FbxExporter\\Grass - Brown cb -opt.jpg",
            "uri": "data:image/jpeg;base64,"
        },
        {
            "name": "FbxExporter\\Stonework - Gravel -opt.jpg",
            "uri": "data:image/jpeg;base64,"
        }
    ],
    "materials": [
        {
            "name": "Grass - Brown",
            "pbrMetallicRoughness": {
                "baseColorTexture": {
                    "index": 0
                },
                "metallicFactor": 0.0
            }
        },
        {
            "name": "Stonework - Gravel",
            "pbrMetallicRoughness": {
                "baseColorTexture": {
                    "index": 1
                },
                "metallicFactor": 0.0
            }
        }
    ],
    "meshes": [
        {
            "name": "Grass - Brown",
            "primitives": [
                {
                    "extensions": {
                        "FB_ngon_encoding": {}
                    },
                    "mode": 4,
                    "material": 0,
                    "indices": 3,
                    "attributes": {
                        "POSITION": 0,
                        "NORMAL": 1,
                        "TEXCOORD_0": 2
                    }
                }
            ]
        },
        {
            "name": "Stonework - Gravel",
            "primitives": [
                {
                    "extensions": {
                        "FB_ngon_encoding": {}
                    },
                    "mode": 4,
                    "material": 1,
                    "indices": 7,
                    "attributes": {
                        "POSITION": 4,
                        "NORMAL": 5,
                        "TEXCOORD_0": 6
                    }
                }
            ]
        }
    ],
    "nodes": [
        {
            "name": "RootNode",
            "children": [
                1,
                2
            ]
        },
        {
            "name": "Grass - Brown",
            "mesh": 0,
            "extras": {
                "UserProperties": "",
                "IsNull": false,
                "DefaultAttributeIndex": 0,
                "ScalingMax": null
            }
        },
        {
            "name": "Stonework - Gravel",
            "mesh": 1,
            "extras": {
                "UserProperties": "",
                "IsNull": false,
                "DefaultAttributeIndex": 0,
                "ScalingMax": null
            }
        }
    ],
    "samplers": [
        {},
        {}
    ],
    "scenes": [
        {
            "nodes": [
                0
            ]
        }
    ],
    "textures": [
        {
            "source": 0,
            "sampler": 0
        },
        {
            "source": 1,
            "sampler": 1
        }
    ],
    "scene": 0
}